<?xml version="1.0" standalone="no"?>
<!DOCTYPE svg PUBLIC "-//W3C//DTD SVG 20010904//EN"
 "http://www.w3.org/TR/2001/REC-SVG-20010904/DTD/svg10.dtd">
<svg version="1.0" xmlns="http://www.w3.org/2000/svg"
 width="588.000000pt" height="378.000000pt" viewBox="0 0 588.000000 378.000000"
 preserveAspectRatio="xMidYMid meet">

<g transform="translate(0.000000,378.000000) scale(0.100000,-0.100000)"
fill="#000000" stroke="none">
<path d="M4624 3448 c-3 -4 -29 -6 -59 -4 -30 2 -52 -1 -49 -5 3 -5 -9 -6 -25
-3 -17 4 -37 2 -43 -3 -7 -5 -23 -8 -35 -7 -13 0 -23 -2 -23 -7 0 -5 -9 -13
-21 -19 -16 -9 -25 -8 -40 6 -13 11 -19 13 -19 4 0 -7 -7 -10 -17 -6 -9 4 -20
1 -24 -6 -7 -10 -11 -10 -21 0 -15 15 -32 16 -22 0 5 -7 0 -9 -14 -6 -14 4
-22 0 -25 -13 -5 -20 -37 -27 -37 -8 0 8 -5 8 -15 -1 -8 -7 -15 -9 -15 -4 0 5
-6 2 -13 -6 -7 -9 -31 -16 -60 -17 -28 -1 -54 -8 -63 -18 -14 -13 -19 -14 -25
-3 -5 7 -9 8 -9 2 0 -6 -13 -11 -28 -11 -16 0 -44 -7 -62 -17 -22 -10 -36 -13
-38 -6 -2 5 -8 10 -14 10 -6 0 -7 -7 -4 -16 4 -10 2 -14 -6 -11 -7 2 -12 9
-11 14 1 5 -4 10 -12 10 -7 0 -11 -5 -9 -11 2 -6 -6 -12 -18 -13 -25 -3 -45
-7 -68 -16 -22 -8 -73 -21 -87 -22 -7 0 -22 -8 -34 -18 -12 -11 -29 -17 -39
-14 -13 3 -22 -4 -30 -24 -7 -16 -16 -29 -21 -29 -14 0 -11 18 4 23 7 4 6 6
-5 6 -9 1 -23 -6 -32 -14 -8 -9 -18 -15 -21 -15 -3 1 -19 -1 -36 -5 -28 -6
-29 -8 -12 -20 10 -8 14 -17 9 -22 -5 -4 -11 -3 -13 4 -2 7 -11 9 -20 6 -11
-5 -14 -3 -9 6 6 9 3 9 -13 -1 -12 -7 -21 -16 -21 -20 0 -5 -7 -8 -16 -8 -9 0
-12 5 -8 13 9 13 -27 -12 -38 -28 -7 -10 -11 -11 -43 -14 -8 0 -12 -7 -9 -15
3 -9 -2 -14 -18 -14 -36 0 -51 -5 -87 -31 -19 -14 -31 -18 -27 -10 4 8 1 6 -8
-5 -10 -12 -32 -20 -63 -22 -29 -2 -53 -10 -60 -20 -6 -9 -15 -14 -20 -11 -4
3 -22 -6 -38 -19 -17 -13 -24 -24 -17 -24 6 0 12 -7 12 -15 0 -8 -7 -15 -15
-15 -8 0 -15 4 -15 10 0 15 -29 0 -35 -18 -3 -10 -21 -28 -40 -42 -19 -14 -37
-32 -40 -42 -3 -9 -18 -21 -33 -27 -15 -6 -55 -26 -89 -45 -35 -19 -63 -32
-63 -29 0 3 -7 -1 -17 -8 -9 -8 -18 -12 -20 -11 -3 2 -8 0 -11 -4 -4 -4 -1 -4
6 0 15 9 16 -10 1 -20 -6 -3 -15 -1 -19 6 -9 15 -30 5 -26 -13 1 -7 1 -9 -1
-4 -7 11 -33 8 -33 -4 0 -6 -7 -9 -15 -6 -8 4 -17 2 -20 -3 -4 -6 -15 -10 -26
-10 -10 0 -42 -11 -71 -25 -28 -14 -55 -25 -59 -25 -10 0 -110 -61 -127 -77
-7 -7 -19 -13 -27 -13 -7 0 -15 -5 -17 -10 -2 -6 -13 -12 -26 -15 -20 -3 -36
-14 -98 -65 -7 -5 -14 -6 -17 -3 -3 3 -3 -4 0 -16 3 -12 1 -21 -6 -21 -6 0
-11 8 -11 17 0 15 -2 14 -15 -3 -8 -10 -15 -15 -15 -11 0 4 -10 3 -21 -4 -18
-9 -19 -13 -8 -21 11 -8 10 -9 -3 -4 -22 7 -110 -42 -102 -56 5 -7 2 -8 -5 -4
-16 10 -51 -22 -44 -40 3 -8 0 -14 -7 -14 -6 0 -9 4 -6 9 3 5 -1 11 -9 15 -8
3 -15 2 -15 -2 0 -5 -16 -16 -35 -25 -19 -9 -35 -22 -35 -28 0 -6 -9 -9 -20
-6 -10 3 -20 2 -22 -2 -2 -3 -23 -19 -47 -36 -56 -38 -161 -141 -153 -150 4
-4 -1 -11 -11 -16 -9 -6 -17 -17 -17 -24 0 -8 -6 -15 -13 -15 -8 0 -29 -22
-48 -50 -19 -27 -37 -50 -41 -50 -5 0 -8 -5 -8 -11 0 -7 -8 -18 -17 -25 -17
-13 -17 -14 2 -7 18 6 18 5 6 -10 -7 -9 -17 -14 -22 -11 -5 3 -9 2 -8 -3 3
-20 -15 -54 -27 -49 -8 3 -15 -6 -19 -24 -3 -15 -12 -30 -18 -33 -7 -3 -21
-21 -31 -42 -16 -29 -17 -38 -7 -44 9 -6 10 -11 2 -15 -6 -4 -11 -2 -11 5 0 7
-8 5 -20 -6 -13 -12 -18 -26 -14 -39 4 -15 3 -17 -4 -7 -7 10 -13 5 -22 -23
-6 -20 -15 -36 -19 -36 -9 0 -57 -102 -53 -113 1 -5 -2 -6 -8 -2 -5 3 -10 2
-10 -4 0 -5 -6 -16 -14 -23 -8 -8 -25 -37 -39 -65 -14 -28 -42 -76 -61 -108
-19 -32 -32 -64 -28 -73 4 -12 1 -14 -13 -8 -11 4 -16 4 -12 0 3 -4 -2 -19
-12 -33 -10 -14 -24 -44 -32 -66 -7 -22 -19 -47 -25 -55 -7 -8 -16 -28 -20
-45 -4 -16 -13 -39 -20 -50 -18 -26 -18 -33 4 -38 15 -4 14 -6 -4 -12 -16 -5
-23 -18 -27 -48 -9 -61 15 -153 36 -140 6 3 7 1 3 -5 -10 -16 34 -72 56 -72
11 0 16 -4 13 -10 -8 -13 76 -72 97 -67 9 3 19 -2 22 -10 3 -8 10 -11 16 -8 5
3 20 -1 32 -9 12 -9 31 -13 45 -10 13 4 23 2 23 -4 0 -15 91 -25 123 -13 16 6
26 7 23 2 -3 -5 1 -12 10 -15 22 -8 36 -7 30 2 -3 5 25 4 62 -1 37 -4 113 -9
169 -10 57 -1 103 -6 103 -10 0 -11 152 -5 167 6 8 6 18 6 26 -1 13 -11 215
-8 277 4 19 4 42 8 50 9 59 5 159 28 155 36 -4 5 0 6 8 3 18 -7 178 41 224 67
18 10 34 18 36 17 1 -1 33 11 70 26 43 19 66 34 63 42 -3 7 2 12 12 12 29 -2
209 97 204 112 -3 9 1 11 12 7 9 -4 16 -2 16 3 0 6 6 10 13 10 14 0 117 96
117 110 0 6 6 10 13 10 8 0 22 9 32 20 28 31 87 56 145 63 8 1 20 9 27 17 9
11 12 12 13 2 0 -9 7 -11 19 -7 40 12 61 14 61 3 0 -5 7 -7 16 -4 9 4 22 2 29
-4 9 -8 17 -6 29 6 10 9 20 13 24 9 4 -4 1 -10 -5 -12 -20 -7 -15 -21 10 -29
12 -3 34 -15 48 -25 14 -10 28 -16 31 -14 5 5 23 -12 112 -105 29 -30 42 -38
51 -30 9 8 15 8 20 0 3 -5 0 -10 -7 -10 -23 -1 66 -50 90 -50 12 0 22 -4 22
-8 0 -7 63 -32 90 -37 3 0 11 -4 18 -8 6 -5 17 -5 22 -2 6 3 10 1 10 -6 0 -7
3 -9 6 -6 4 3 14 2 24 -3 24 -13 103 -29 155 -33 11 0 23 -6 27 -11 5 -7 8 -6
8 3 0 12 3 11 13 -2 8 -12 31 -17 79 -20 55 -3 65 -1 56 10 -6 7 -8 16 -4 20
3 3 6 2 6 -4 0 -23 73 -31 98 -11 6 6 12 8 12 4 0 -3 19 5 43 18 28 16 41 30
39 42 -2 11 1 15 11 11 9 -3 20 5 28 21 8 14 24 37 36 50 12 13 34 56 48 95
14 40 30 79 35 88 5 9 8 57 8 107 -1 74 -3 89 -15 85 -9 -4 -14 0 -13 8 5 36
-2 59 -30 94 -16 21 -30 32 -30 26 0 -7 -10 -11 -22 -9 -29 4 -28 19 2 34 12
7 18 13 13 15 -12 6 -53 84 -53 103 0 9 -5 16 -11 16 -6 0 -8 12 -6 29 3 16
-1 41 -9 55 -7 15 -9 24 -4 21 5 -3 12 11 16 32 10 53 32 103 61 137 22 27 23
31 9 42 -9 6 -16 15 -16 20 0 4 5 3 12 -4 7 -7 18 -12 25 -12 17 0 62 50 63
68 0 7 4 11 9 8 12 -8 39 24 52 62 6 17 19 34 30 37 10 4 19 10 19 15 0 5 11
20 24 33 13 13 30 41 37 63 8 21 26 52 42 68 15 16 27 35 27 42 0 8 3 14 8 14
4 0 18 25 32 55 14 30 31 55 38 55 7 0 10 5 7 10 -3 6 0 13 8 16 8 3 29 34 47
70 18 35 38 64 44 64 6 0 4 5 -4 10 -13 9 -13 12 2 20 9 6 15 17 12 24 -3 7 2
16 10 19 20 8 21 27 1 27 -8 0 -15 5 -15 10 0 6 9 10 20 10 18 0 22 5 19 26 0
3 8 13 19 22 11 10 22 33 25 52 4 19 8 42 10 50 3 8 8 30 12 48 4 18 12 35 17
38 5 3 1 13 -9 21 -15 12 -15 14 -2 10 23 -7 44 39 27 60 -9 11 -9 16 2 23 8
5 15 23 16 42 1 18 6 68 10 111 5 60 4 81 -6 87 -8 5 -9 13 -4 21 10 17 10 51
0 67 -4 8 -5 16 -2 19 3 4 -1 17 -9 30 -9 13 -13 28 -10 33 3 6 -5 14 -19 20
-17 6 -26 17 -26 30 0 17 -5 20 -22 16 -13 -3 -17 -3 -10 0 6 3 12 9 12 13 0
12 -36 51 -47 51 -5 0 -19 14 -31 30 -13 17 -29 30 -37 30 -8 0 -15 5 -15 10
0 6 -9 10 -20 10 -11 0 -20 5 -20 10 0 6 -12 10 -26 10 -16 0 -23 4 -18 12 4
7 3 8 -4 4 -6 -4 -22 0 -35 9 -22 14 -56 15 -107 3 -9 -2 -15 4 -14 12 1 16
-33 22 -42 8z m-124 -26 c0 -4 -9 -13 -20 -20 -23 -14 -26 -8 -7 13 13 16 27
19 27 7z m65 -2 c3 -5 1 -10 -4 -10 -6 0 -11 5 -11 10 0 6 2 10 4 10 3 0 8 -4
11 -10z m205 6 c0 -3 -4 -8 -10 -11 -5 -3 -10 -1 -10 4 0 6 5 11 10 11 6 0 10
-2 10 -4z m-516 -72 c9 -24 7 -27 -9 -10 -17 17 -19 26 -6 26 5 0 12 -7 15
-16z m-44 -14 c0 -5 -2 -10 -4 -10 -3 0 -8 5 -11 10 -3 6 -1 10 4 10 6 0 11
-4 11 -10z m-64 -27 c-10 -10 -19 5 -10 18 6 11 8 11 12 0 2 -7 1 -15 -2 -18z
m-76 7 c0 -5 -4 -10 -10 -10 -5 0 -10 5 -10 10 0 6 5 10 10 10 6 0 10 -4 10
-10z m665 0 c3 -5 1 -10 -4 -10 -6 0 -11 5 -11 10 0 6 2 10 4 10 3 0 8 -4 11
-10z m-475 -10 c0 -5 -5 -10 -11 -10 -5 0 -7 5 -4 10 3 6 8 10 11 10 2 0 4 -4
4 -10z m107 4 c-3 -3 -12 -4 -19 -1 -8 3 -5 6 6 6 11 1 17 -2 13 -5z m223 -4
c0 -5 -4 -10 -10 -10 -5 0 -10 5 -10 10 0 6 5 10 10 10 6 0 10 -4 10 -10z
m-155 -21 c11 -17 -1 -21 -15 -4 -8 9 -8 15 -2 15 6 0 14 -5 17 -11z m-368
-21 c-3 -8 -6 -5 -6 6 -1 11 2 17 5 13 3 -3 4 -12 1 -19z m-287 -28 c0 -5 -4
-10 -10 -10 -5 0 -10 5 -10 10 0 6 5 10 10 10 6 0 10 -4 10 -10z m260 -11 c0
-6 -4 -7 -10 -4 -5 3 -10 11 -10 16 0 6 5 7 10 4 6 -3 10 -11 10 -16z m-30 1
c0 -5 -5 -10 -11 -10 -5 0 -7 5 -4 10 3 6 8 10 11 10 2 0 4 -4 4 -10z m-45
-10 c3 -5 1 -10 -4 -10 -6 0 -11 5 -11 10 0 6 2 10 4 10 3 0 8 -4 11 -10z
m169 -2 c21 9 24 9 19 -3 -3 -8 -8 -15 -12 -15 -4 0 -7 -9 -7 -20 0 -11 6 -20
12 -20 7 0 10 8 7 20 -3 11 0 20 6 20 15 0 9 -29 -13 -63 -10 -15 -16 -30 -12
-34 3 -3 6 -1 6 5 0 17 45 62 63 62 8 0 17 5 19 11 2 7 13 9 26 4 18 -5 20
-10 12 -20 -8 -9 -7 -14 5 -19 8 -3 15 0 15 6 0 7 7 3 15 -8 14 -18 14 -18 15
6 0 18 3 21 12 12 6 -6 11 -25 11 -42 0 -30 1 -30 25 -14 24 16 25 16 19 -5
-3 -11 -1 -21 5 -21 6 0 8 -11 6 -25 -4 -17 -1 -25 8 -25 8 0 14 -5 14 -11 0
-6 -9 -8 -21 -4 -13 5 -19 3 -15 -3 6 -9 -22 -23 -54 -26 -16 -2 -16 -8 -4
-41 6 -17 4 -16 -15 5 -18 20 -24 22 -31 10 -6 -8 -10 -11 -10 -6 0 6 11 21
24 35 39 42 58 78 47 86 -6 3 -11 1 -11 -4 0 -6 -11 -11 -24 -11 -16 0 -26 -7
-30 -22 -4 -16 -9 -19 -14 -11 -10 16 -37 -1 -27 -17 5 -7 1 -11 -11 -10 -22
2 -64 -10 -64 -18 0 -3 7 -14 17 -24 15 -17 15 -18 0 -18 -10 0 -17 7 -17 16
0 11 -6 13 -20 9 -10 -3 -28 -2 -38 4 -14 8 -22 5 -32 -10 -8 -10 -22 -19 -30
-19 -9 0 -26 -9 -38 -20 -12 -11 -24 -20 -27 -20 -3 0 -19 -3 -36 -7 -23 -4
-29 -10 -26 -24 3 -11 -4 -24 -18 -33 -20 -13 -24 -13 -38 1 -11 11 -23 13
-44 8 -15 -4 -22 -10 -15 -12 23 -9 12 -25 -13 -19 -19 5 -23 3 -19 -9 4 -10
0 -15 -15 -15 -14 0 -19 -5 -15 -15 3 -8 -1 -22 -10 -30 -19 -20 -20 -31 -3
-33 6 0 31 -3 55 -5 23 -2 45 0 49 6 3 6 1 7 -5 3 -6 -3 -13 -2 -16 3 -4 5 -1
13 4 16 17 10 52 -26 44 -44 -13 -32 -15 -94 -3 -101 6 -4 8 -13 5 -19 -12
-19 -21 -12 -23 21 -1 17 -8 35 -14 39 -6 4 -9 11 -6 16 4 6 -4 8 -20 5 -19
-4 -24 -2 -18 8 4 7 2 16 -6 21 -22 14 -36 10 -42 -10 -3 -11 -17 -22 -36 -26
-17 -4 -31 -13 -31 -21 0 -12 4 -12 20 -4 16 8 20 8 20 -4 0 -7 11 -17 25 -20
14 -4 23 -11 19 -17 -3 -6 0 -10 7 -8 29 3 39 -2 39 -19 0 -10 9 -36 21 -57
19 -36 20 -37 15 -10 -6 27 -5 28 6 10 17 -27 17 -93 1 -99 -7 -3 -13 -15 -13
-26 0 -12 -4 -19 -8 -16 -15 9 -47 -37 -44 -61 2 -13 -1 -23 -7 -23 -22 0 -42
-33 -36 -59 4 -18 3 -22 -4 -12 -8 12 -14 11 -42 -5 -18 -11 -34 -25 -37 -33
-3 -8 0 -11 5 -8 5 3 9 -4 8 -16 -1 -12 -9 -23 -17 -25 -8 -2 -20 -15 -27 -29
-10 -22 -9 -25 4 -19 10 3 14 2 10 -5 -4 -6 -13 -8 -21 -5 -8 3 -22 -3 -31
-14 -9 -10 -20 -17 -24 -14 -9 5 -45 -56 -41 -69 1 -5 -6 -6 -17 -2 -16 5 -19
2 -17 -20 3 -19 -4 -30 -25 -42 -16 -10 -29 -21 -29 -25 0 -12 -43 -48 -77
-65 -33 -15 -47 -38 -17 -26 11 4 15 2 12 -7 -5 -17 -48 -21 -48 -4 0 9 -5 10
-24 1 -13 -6 -21 -17 -19 -24 3 -7 -2 -13 -11 -13 -9 0 -29 -11 -43 -24 -15
-14 -31 -23 -35 -20 -8 5 -51 -23 -126 -82 -15 -12 -52 -34 -82 -49 -30 -16
-67 -37 -82 -47 -21 -14 -28 -16 -29 -6 0 7 -5 3 -11 -9 -6 -13 -17 -23 -25
-23 -7 0 -13 -11 -13 -25 0 -14 -5 -25 -10 -25 -6 0 -8 11 -4 25 6 24 5 26
-22 19 -27 -7 -37 -13 -70 -43 -14 -12 -17 -12 -25 0 -7 11 -9 11 -9 1 0 -19
-41 -51 -65 -52 -11 0 -32 -11 -46 -24 -25 -23 -89 -41 -89 -24 0 4 -4 8 -10
8 -5 0 -7 -7 -4 -15 5 -11 -1 -15 -20 -15 -16 0 -26 -6 -26 -15 0 -18 -30 -20
-30 -2 -1 7 -6 5 -14 -5 -12 -17 -14 -17 -30 0 -9 10 -13 22 -9 25 3 4 -3 7
-15 7 -12 0 -21 -3 -20 -7 2 -5 -5 -19 -15 -33 -9 -13 -17 -21 -17 -16 0 5 -9
1 -21 -10 -22 -20 -72 -27 -66 -9 2 5 16 9 30 7 22 -3 27 1 27 17 0 14 6 21
19 21 28 0 33 14 11 28 -16 10 -18 9 -14 -3 4 -8 1 -15 -6 -15 -7 0 -19 -8
-26 -17 -12 -16 -13 -16 -14 8 0 32 29 66 53 61 9 -2 17 1 17 7 0 6 -7 11 -15
11 -8 0 -15 5 -15 10 0 6 3 9 8 8 4 -1 16 3 27 9 11 6 32 10 48 8 15 -2 27 1
27 6 0 5 -7 9 -15 9 -18 0 -20 26 -3 36 7 4 8 3 4 -4 -4 -7 -1 -12 8 -12 9 0
16 4 16 9 0 13 -37 24 -52 15 -8 -5 -9 -1 -5 12 7 18 6 18 -6 2 -10 -13 -17
-14 -25 -6 -6 6 -22 10 -36 11 -25 0 -30 7 -27 34 1 7 -3 13 -9 13 -5 0 -10 6
-10 14 0 19 32 30 42 14 6 -10 8 -10 8 0 0 6 7 12 16 12 11 0 15 6 11 19 -3
13 5 28 23 45 16 13 30 23 32 20 3 -2 13 5 23 16 18 20 18 21 0 14 -14 -6 -17
-4 -12 8 8 22 -26 50 -54 46 -19 -2 -24 2 -26 25 -1 22 2 27 22 27 12 0 25 7
29 15 4 10 -1 15 -14 15 -11 0 -20 -4 -20 -9 0 -5 -11 -8 -24 -8 -23 -1 -24 0
-9 35 13 32 13 34 -3 28 -9 -3 -23 -1 -30 5 -8 6 -14 8 -14 5 0 -4 -5 -4 -10
-1 -8 5 -8 11 0 20 8 9 5 12 -10 11 -12 0 -25 -8 -30 -16 -5 -8 -12 -11 -16
-7 -4 4 3 16 16 27 13 11 20 21 17 21 -4 1 -12 2 -19 3 -6 0 -12 9 -14 19 -1
10 -8 25 -15 33 -12 14 -14 14 -26 -2 -7 -10 -13 -13 -13 -7 0 6 7 16 15 23 9
7 12 18 7 24 -4 6 -7 18 -6 26 1 8 3 26 4 40 1 23 2 23 10 5 5 -11 9 -15 9 -8
1 6 14 14 30 18 19 4 28 11 25 20 -4 11 1 11 28 1 18 -6 44 -17 56 -25 13 -7
26 -10 29 -7 4 3 12 1 20 -5 7 -6 22 -9 33 -6 11 3 23 1 26 -4 3 -5 10 -9 15
-9 6 0 7 4 4 10 -3 5 0 7 8 5 7 -3 18 -18 24 -33 11 -26 11 -26 12 -3 1 16 5
21 16 17 9 -3 15 0 15 9 0 7 9 17 20 20 11 3 20 11 20 16 0 5 9 9 20 9 11 0
20 4 20 10 0 5 11 21 26 35 14 14 22 30 19 35 -9 14 2 12 28 -5 29 -19 64 -3
92 42 11 18 26 32 34 33 11 0 11 3 1 15 -11 13 -11 18 0 28 10 10 12 8 6 -8
-6 -16 -5 -17 5 -8 8 8 17 9 24 3 8 -7 12 -5 12 5 0 8 -4 15 -9 15 -4 0 -8 5
-8 10 0 6 9 10 20 10 11 0 25 9 32 20 7 11 19 20 26 20 7 0 10 5 6 12 -5 7
-15 2 -30 -18 -19 -23 -26 -26 -36 -16 -9 9 -9 12 4 12 14 0 34 43 29 63 -1 5
3 6 8 3 5 -3 11 1 15 9 3 8 12 15 21 15 15 0 19 11 16 38 -2 9 6 11 25 6 19
-5 25 -4 20 4 -5 8 -2 10 8 6 11 -4 16 0 16 15 0 28 20 27 20 -1 1 -22 2 -21
16 5 8 15 19 27 25 27 6 0 9 6 7 12 -5 14 64 68 86 68 8 0 16 7 20 15 3 8 11
15 18 15 8 0 20 9 28 20 8 11 21 20 29 20 8 0 12 3 8 6 -8 8 71 74 89 74 8 0
14 5 14 11 0 5 5 7 10 4 6 -3 10 -2 10 4 0 5 -8 15 -17 20 -14 8 -11 9 15 5
26 -5 31 -4 26 9 -5 13 10 31 26 32 16 1 79 53 72 60 -4 4 5 5 19 1 19 -4 29
-1 33 9 3 9 12 12 22 8 14 -5 16 -3 11 12 -6 15 -5 16 8 5 13 -11 18 -11 28 0
9 10 9 11 -1 6 -6 -4 -19 0 -28 9 -18 18 -13 31 8 19 26 -17 48 -15 42 4 -4
11 -3 13 3 5 6 -8 20 -9 45 -4 20 5 38 8 40 7 2 0 0 3 -4 9 -5 5 -8 14 -8 20
0 5 4 4 8 -3 5 -7 16 -10 25 -6 9 3 14 10 11 16 -3 5 0 8 7 7 8 -1 27 3 43 10
28 11 28 12 11 31 -20 22 -7 28 14 8 11 -10 14 -10 18 0 5 13 33 17 33 4 0
-16 43 -6 56 13 8 10 14 15 14 9 0 -5 5 -2 10 6 9 13 11 13 21 0 8 -12 9 -10
4 7 -5 17 -2 22 12 22 10 0 29 1 43 2 14 0 30 0 35 -2 6 -2 12 1 13 6 12 34
81 73 94 52 5 -8 13 -8 32 1z m176 -2 c0 -8 -7 -16 -15 -20 -13 -4 -14 -2 -5
14 13 23 20 26 20 6z m130 4 c0 -5 -5 -10 -11 -10 -5 0 -7 5 -4 10 3 6 8 10
11 10 2 0 4 -4 4 -10z m-800 -4 c0 -3 -4 -8 -10 -11 -5 -3 -10 -1 -10 4 0 6 5
11 10 11 6 0 10 -2 10 -4z m1255 -5 c3 -5 1 -12 -5 -16 -5 -3 -10 1 -10 9 0
18 6 21 15 7z m-504 -28 c-12 -20 -14 -14 -5 12 4 9 9 14 11 11 3 -2 0 -13 -6
-23z m-15 -30 c-7 -7 -26 7 -26 19 0 6 6 6 15 -2 9 -7 13 -15 11 -17z m47 13
c4 -10 1 -13 -9 -9 -7 3 -14 9 -14 14 0 14 17 10 23 -5z m-643 0 c0 -3 -4 -8
-10 -11 -5 -3 -10 -1 -10 4 0 6 5 11 10 11 6 0 10 -2 10 -4z m100 -6 c0 -5 -2
-10 -4 -10 -3 0 -8 5 -11 10 -3 6 -1 10 4 10 6 0 11 -4 11 -10z m-255 -10 c3
-5 1 -10 -4 -10 -6 0 -11 5 -11 10 0 6 2 10 4 10 3 0 8 -4 11 -10z m75 6 c0
-3 -4 -8 -10 -11 -5 -3 -10 -1 -10 4 0 6 5 11 10 11 6 0 10 -2 10 -4z m-270
-20 c0 -2 -7 -6 -15 -10 -8 -3 -15 -1 -15 4 0 6 7 10 15 10 8 0 15 -2 15 -4z
m168 -14 c6 -18 -15 -14 -22 4 -4 10 -1 14 6 12 6 -2 14 -10 16 -16z m-261
-38 c-9 -9 -28 6 -21 18 4 6 10 6 17 -1 6 -6 8 -13 4 -17z m28 -4 c3 -5 1 -10
-4 -10 -6 0 -11 5 -11 10 0 6 2 10 4 10 3 0 8 -4 11 -10z m185 -20 c0 -5 -4
-10 -10 -10 -5 0 -10 5 -10 10 0 6 5 10 10 10 6 0 10 -4 10 -10z m758 -22 c-2
-6 -10 -14 -16 -16 -7 -2 -10 2 -6 12 7 18 28 22 22 4z m-28 -39 c0 -5 -4 -8
-9 -5 -5 4 -11 0 -14 -6 -2 -7 -8 -9 -13 -5 -5 4 -2 12 6 17 20 13 30 12 30
-1z m196 -47 c-8 -9 -19 -13 -23 -9 -3 4 2 13 12 21 12 9 15 15 7 20 -7 4 -12
12 -12 19 0 6 7 1 16 -12 15 -21 15 -24 0 -39z m-1334 16 c-7 -7 -12 -8 -12
-2 0 6 3 14 7 17 3 4 9 5 12 2 2 -3 -1 -11 -7 -17z m1903 12 c3 -5 1 -10 -4
-10 -6 0 -11 5 -11 10 0 6 2 10 4 10 3 0 8 -4 11 -10z m-815 -16 c0 -2 -7 -4
-15 -4 -8 0 -15 4 -15 10 0 5 7 7 15 4 8 -4 15 -8 15 -10z m900 6 c0 -5 -5
-10 -11 -10 -5 0 -7 5 -4 10 3 6 8 10 11 10 2 0 4 -4 4 -10z m-1040 -26 c0 -8
-5 -12 -10 -9 -6 4 -8 11 -5 16 9 14 15 11 15 -7z m959 -15 c-16 -10 -23 -4
-14 10 3 6 11 8 17 5 6 -4 5 -9 -3 -15z m-1734 1 c3 -5 1 -10 -4 -10 -6 0 -11
5 -11 10 0 6 2 10 4 10 3 0 8 -4 11 -10z m815 0 c0 -5 -4 -10 -10 -10 -5 0
-10 5 -10 10 0 6 5 10 10 10 6 0 10 -4 10 -10z m-940 -10 c0 -5 -5 -10 -11
-10 -5 0 -7 5 -4 10 3 6 8 10 11 10 2 0 4 -4 4 -10z m1281 -11 c17 -17 19 -23
8 -30 -8 -5 -22 -9 -31 -9 -10 0 -18 -7 -18 -15 0 -13 -4 -13 -27 2 l-26 17
24 6 c17 4 20 8 11 14 -11 6 -8 11 10 21 12 7 24 13 26 14 1 1 12 -9 23 -20z
m-166 2 c3 -5 1 -12 -5 -16 -5 -3 -10 1 -10 9 0 18 6 21 15 7z m-255 -11 c0
-5 -5 -10 -11 -10 -5 0 -7 5 -4 10 3 6 8 10 11 10 2 0 4 -4 4 -10z m-60 -20
c12 -8 9 -10 -13 -10 -24 0 -27 -3 -22 -27 3 -16 2 -21 -2 -13 -3 8 -13 20
-21 26 -13 10 -13 13 4 22 24 14 35 14 54 2z m-796 -25 c-4 -8 -12 -15 -20
-15 -8 0 -14 7 -14 15 0 8 9 15 20 15 13 0 18 -5 14 -15z m1086 5 c0 -5 -2
-10 -4 -10 -3 0 -8 5 -11 10 -3 6 -1 10 4 10 6 0 11 -4 11 -10z m-1030 -20 c0
-5 -4 -10 -10 -10 -5 0 -10 5 -10 10 0 6 5 10 10 10 6 0 10 -4 10 -10z m1149
-12 c-3 -27 2 -38 17 -38 14 0 14 -3 4 -15 -10 -12 -10 -15 0 -15 7 0 10 -7 6
-16 -3 -8 -2 -12 4 -9 6 3 10 1 10 -5 0 -7 -9 -14 -20 -17 -11 -3 -20 -11 -20
-18 0 -7 -12 -11 -27 -11 -16 1 -38 -7 -50 -18 -24 -20 -32 -10 -10 13 8 10 8
12 0 7 -6 -3 -14 -2 -18 4 -3 5 1 10 9 10 9 0 16 8 17 18 0 10 3 12 6 5 9 -23
20 -14 15 12 -4 25 11 35 23 15 3 -5 1 -10 -5 -10 -6 0 -8 -5 -4 -11 4 -8 13
-4 25 12 15 20 15 24 2 34 -12 9 -12 15 -2 38 13 29 21 35 18 15z m-1199 -18
c0 -5 -7 -10 -15 -10 -8 0 -15 5 -15 10 0 6 7 10 15 10 8 0 15 -4 15 -10z
m625 -20 c3 -5 1 -10 -4 -10 -6 0 -11 5 -11 10 0 6 2 10 4 10 3 0 8 -4 11 -10z
m-47 -22 c17 -17 -4 -48 -33 -46 -13 1 -21 6 -19 10 3 5 10 6 15 3 5 -4 9 5 9
19 0 28 9 33 28 14z m-628 -8 c0 -5 -4 -10 -10 -10 -5 0 -10 5 -10 10 0 6 5
10 10 10 6 0 10 -4 10 -10z m1110 0 c0 -5 -2 -10 -4 -10 -3 0 -8 5 -11 10 -3
6 -1 10 4 10 6 0 11 -4 11 -10z m-1190 -20 c0 -5 -4 -10 -10 -10 -5 0 -10 5
-10 10 0 6 5 10 10 10 6 0 10 -4 10 -10z m2018 -29 c3 -8 -1 -12 -9 -9 -7 2
-15 10 -17 17 -3 8 1 12 9 9 7 -2 15 -10 17 -17z m-38 -1 c0 -5 -4 -10 -10
-10 -5 0 -10 5 -10 10 0 6 5 10 10 10 6 0 10 -4 10 -10z m-763 -56 c-3 -3 -12
-4 -19 -1 -8 3 -5 6 6 6 11 1 17 -2 13 -5z m-1387 -14 c0 -5 -4 -10 -10 -10
-5 0 -10 5 -10 10 0 6 5 10 10 10 6 0 10 -4 10 -10z m2165 0 c3 -5 1 -10 -4
-10 -6 0 -11 5 -11 10 0 6 2 10 4 10 3 0 8 -4 11 -10z m-785 -10 c22 14 26 12
26 -10 0 -16 -6 -19 -26 -16 -14 2 -28 5 -32 5 -5 1 -8 8 -8 17 0 12 3 14 13
6 8 -7 18 -7 27 -2z m-310 -20 c0 -5 -2 -10 -4 -10 -3 0 -8 5 -11 10 -3 6 -1
10 4 10 6 0 11 -4 11 -10z m-105 -11 c11 -16 1 -19 -13 -3 -7 8 -8 14 -3 14 5
0 13 -5 16 -11z m391 -36 c-6 -6 -36 9 -36 18 0 5 9 4 20 -3 10 -7 18 -14 16
-15z m532 -12 c3 -8 -1 -12 -9 -9 -7 2 -15 10 -17 17 -3 8 1 12 9 9 7 -2 15
-10 17 -17z m-884 -16 c-23 -17 -31 -18 -39 -5 -3 6 3 10 14 10 11 0 23 5 26
11 4 6 10 8 13 5 3 -4 -3 -13 -14 -21z m-64 -5 c0 -5 -2 -10 -4 -10 -3 0 -8 5
-11 10 -3 6 -1 10 4 10 6 0 11 -4 11 -10z m-1610 -20 c0 -5 -4 -10 -10 -10 -5
0 -10 5 -10 10 0 6 5 10 10 10 6 0 10 -4 10 -10z m1680 -4 c0 -3 -4 -8 -10
-11 -5 -3 -10 -1 -10 4 0 6 5 11 10 11 6 0 10 -2 10 -4z m-1295 -26 c-3 -5
-11 -10 -16 -10 -6 0 -7 5 -4 10 3 6 11 10 16 10 6 0 7 -4 4 -10z m1255 -20
c0 -5 -4 -10 -10 -10 -5 0 -10 5 -10 10 0 6 5 10 10 10 6 0 10 -4 10 -10z
m-1200 -20 c0 -5 -5 -10 -11 -10 -5 0 -7 5 -4 10 3 6 8 10 11 10 2 0 4 -4 4
-10z m1225 -20 c3 -5 1 -10 -4 -10 -6 0 -11 5 -11 10 0 6 2 10 4 10 3 0 8 -4
11 -10z m-1615 -10 c0 -5 -4 -10 -10 -10 -5 0 -10 5 -10 10 0 6 5 10 10 10 6
0 10 -4 10 -10z m1600 -14 c0 -3 -4 -8 -10 -11 -5 -3 -10 -1 -10 4 0 6 5 11
10 11 6 0 10 -2 10 -4z m150 -16 c0 -5 -4 -10 -10 -10 -5 0 -10 5 -10 10 0 6
5 10 10 10 6 0 10 -4 10 -10z m395 -10 c3 -5 -1 -10 -10 -10 -9 0 -13 5 -10
10 3 6 8 10 10 10 2 0 7 -4 10 -10z m-628 -62 c-3 -8 -6 -5 -6 6 -1 11 2 17 5
13 3 -3 4 -12 1 -19z m1123 12 c0 -5 -9 -10 -20 -10 -11 0 -20 5 -20 10 0 6 9
10 20 10 11 0 20 -4 20 -10z m-2360 -10 c0 -5 -2 -10 -4 -10 -3 0 -8 5 -11 10
-3 6 -1 10 4 10 6 0 11 -4 11 -10z m-50 -75 c0 -8 -2 -15 -4 -15 -2 0 -11 -3
-19 -6 -12 -4 -14 0 -10 15 6 24 33 29 33 6z m130 5 c0 -5 -4 -10 -10 -10 -5
0 -10 5 -10 10 0 6 5 10 10 10 6 0 10 -4 10 -10z m-20 -40 c0 -5 -4 -10 -10
-10 -5 0 -10 5 -10 10 0 6 5 10 10 10 6 0 10 -4 10 -10z m-1020 -50 c0 -5 -4
-10 -10 -10 -5 0 -10 5 -10 10 0 6 5 10 10 10 6 0 10 -4 10 -10z m850 -36 c0
-22 -16 -17 -17 6 -1 11 2 18 8 15 5 -4 9 -13 9 -21z m-650 6 c0 -5 -4 -10
-10 -10 -5 0 -10 5 -10 10 0 6 5 10 10 10 6 0 10 -4 10 -10z m620 -10 c0 -5
-4 -10 -10 -10 -5 0 -10 5 -10 10 0 6 5 10 10 10 6 0 10 -4 10 -10z m-25 -19
c3 -5 1 -12 -5 -16 -5 -3 -10 1 -10 9 0 18 6 21 15 7z m1445 5 c0 -3 -4 -8
-10 -11 -5 -3 -10 -1 -10 4 0 6 5 11 10 11 6 0 10 -2 10 -4z m960 -16 c0 -5
-4 -10 -10 -10 -5 0 -10 5 -10 10 0 6 5 10 10 10 6 0 10 -4 10 -10z m-3020
-10 c0 -5 -5 -10 -11 -10 -5 0 -7 5 -4 10 3 6 8 10 11 10 2 0 4 -4 4 -10z
m-310 -20 c0 -5 -4 -10 -10 -10 -5 0 -10 5 -10 10 0 6 5 10 10 10 6 0 10 -4
10 -10z m-5 -50 c3 -5 1 -10 -4 -10 -6 0 -11 5 -11 10 0 6 2 10 4 10 3 0 8 -4
11 -10z m75 -10 c0 -5 -4 -10 -10 -10 -5 0 -10 5 -10 10 0 6 5 10 10 10 6 0
10 -4 10 -10z m-168 -22 c-7 -7 -12 -8 -12 -2 0 6 3 14 7 17 3 4 9 5 12 2 2
-3 -1 -11 -7 -17z m238 -2 c0 -3 -4 -8 -10 -11 -5 -3 -10 -1 -10 4 0 6 5 11
10 11 6 0 10 -2 10 -4z m340 -6 c0 -5 -4 -10 -10 -10 -5 0 -10 5 -10 10 0 6 5
10 10 10 6 0 10 -4 10 -10z m2550 0 c0 -5 -4 -10 -10 -10 -5 0 -10 5 -10 10 0
6 5 10 10 10 6 0 10 -4 10 -10z m-499 -23 c-13 -13 -26 -3 -16 12 3 6 11 8 17
5 6 -4 6 -10 -1 -17z m579 -22 c0 -8 -4 -15 -10 -15 -5 0 -10 7 -10 15 0 8 5
15 10 15 6 0 10 -7 10 -15z m-2565 -5 c3 -5 1 -10 -4 -10 -6 0 -11 5 -11 10 0
6 2 10 4 10 3 0 8 -4 11 -10z m2475 0 c0 -5 -4 -10 -10 -10 -5 0 -10 5 -10 10
0 6 5 10 10 10 6 0 10 -4 10 -10z m-2440 -10 c0 -5 -4 -10 -10 -10 -5 0 -10 5
-10 10 0 6 5 10 10 10 6 0 10 -4 10 -10z m1625 -10 c3 -5 1 -10 -4 -10 -6 0
-11 5 -11 10 0 6 2 10 4 10 3 0 8 -4 11 -10z m-2395 -40 c0 -5 -4 -10 -10 -10
-5 0 -10 5 -10 10 0 6 5 10 10 10 6 0 10 -4 10 -10z m890 -10 c0 -5 -7 -10
-16 -10 -8 0 -12 5 -9 10 3 6 10 10 16 10 5 0 9 -4 9 -10z m-53 -32 c-3 -8 -6
-5 -6 6 -1 11 2 17 5 13 3 -3 4 -12 1 -19z m1468 2 c3 -5 1 -10 -4 -10 -6 0
-11 5 -11 10 0 6 2 10 4 10 3 0 8 -4 11 -10z m-1535 -4 c0 -3 -4 -8 -10 -11
-5 -3 -10 -1 -10 4 0 6 5 11 10 11 6 0 10 -2 10 -4z m-242 -57 c2 -26 -1 -29
-28 -29 -26 0 -30 4 -30 28 0 22 5 27 28 29 24 2 28 -2 30 -28z m2780 13 c2
-7 -3 -12 -12 -12 -9 0 -16 7 -16 16 0 17 22 14 28 -4z m-2678 -36 c0 -11 -19
-15 -25 -6 -3 5 1 10 9 10 9 0 16 -2 16 -4z m360 -16 c0 -5 -4 -10 -10 -10 -5
0 -10 5 -10 10 0 6 5 10 10 10 6 0 10 -4 10 -10z m-1090 -4 c0 -3 -4 -8 -10
-11 -5 -3 -10 -1 -10 4 0 6 5 11 10 11 6 0 10 -2 10 -4z m710 -46 c0 -5 -2
-10 -4 -10 -3 0 -8 5 -11 10 -3 6 -1 10 4 10 6 0 11 -4 11 -10z m1470 0 c0 -5
-2 -10 -4 -10 -3 0 -8 5 -11 10 -3 6 -1 10 4 10 6 0 11 -4 11 -10z m-1420 -27
c0 -5 -5 -15 -10 -23 -8 -12 -10 -11 -10 8 0 12 5 22 10 22 6 0 10 -3 10 -7z
m70 -3 c0 -5 -5 -10 -11 -10 -5 0 -7 5 -4 10 3 6 8 10 11 10 2 0 4 -4 4 -10z
m125 -40 c3 -5 2 -10 -4 -10 -5 0 -13 5 -16 10 -3 6 -2 10 4 10 5 0 13 -4 16
-10z m-115 -10 c-13 -9 -13 -11 0 -20 13 -8 12 -11 -5 -24 -23 -18 -35 -20
-35 -6 0 6 5 10 11 10 6 0 8 7 5 16 -8 21 1 34 22 34 15 0 15 -2 2 -10z m-40
-20 c0 -5 -4 -10 -10 -10 -5 0 -10 5 -10 10 0 6 5 10 10 10 6 0 10 -4 10 -10z
m-30 -15 c14 -17 4 -39 -15 -31 -8 3 -15 -1 -17 -9 -2 -11 -8 -9 -26 5 -20 17
-21 20 -6 34 19 20 48 21 64 1z m2450 -5 c0 -5 -4 -10 -10 -10 -5 0 -10 5 -10
10 0 6 5 10 10 10 6 0 10 -4 10 -10z m-2255 -20 c3 -6 -1 -7 -9 -4 -18 7 -21
14 -7 14 6 0 13 -4 16 -10z m-345 -20 c0 -5 -4 -10 -10 -10 -5 0 -10 5 -10 10
0 6 5 10 10 10 6 0 10 -4 10 -10z m230 -17 c0 -13 -6 -23 -14 -23 -9 0 -12 -9
-9 -27 l3 -28 -12 25 c-6 14 -13 27 -15 29 -4 6 -33 -21 -33 -31 0 -6 7 -5 16
3 13 11 14 9 8 -16 -9 -35 -34 -65 -54 -65 -13 0 -13 1 0 10 13 8 11 13 -9 32
-14 13 -19 15 -12 6 14 -19 5 -23 -23 -12 -9 3 -16 14 -16 23 -1 14 -2 14 -11
-2 -11 -19 -29 -14 -29 9 0 8 9 14 21 14 12 0 17 4 14 11 -4 6 -13 8 -21 5
-22 -8 -16 11 8 28 27 19 36 20 35 4 -1 -33 4 -49 13 -43 6 3 10 16 10 28 0
20 0 20 15 1 8 -10 15 -14 15 -7 0 7 6 10 13 7 7 -2 21 4 31 15 17 19 17 19
-3 14 -12 -3 -21 -1 -21 6 0 6 16 10 40 8 34 -2 40 -5 40 -24z m1245 17 c-3
-5 -10 -10 -16 -10 -5 0 -9 5 -9 10 0 6 7 10 16 10 8 0 12 -4 9 -10z m-1845
-20 c0 -5 -4 -10 -10 -10 -5 0 -10 5 -10 10 0 6 5 10 10 10 6 0 10 -4 10 -10z
m-45 -10 c3 -5 1 -10 -4 -10 -6 0 -11 5 -11 10 0 6 2 10 4 10 3 0 8 -4 11 -10z
m420 -57 c0 -20 -5 -38 -11 -40 -21 -7 -10 67 11 77 0 0 0 -16 0 -37z m2565 7
c0 -5 -4 -10 -10 -10 -5 0 -10 5 -10 10 0 6 5 10 10 10 6 0 10 -4 10 -10z
m-3395 -30 c3 -5 1 -10 -4 -10 -6 0 -11 5 -11 10 0 6 2 10 4 10 3 0 8 -4 11
-10z m551 -3 c19 7 19 7 0 -12 -14 -14 -21 -16 -24 -7 -2 6 -11 12 -20 12 -15
0 -15 2 -2 10 9 5 17 5 21 -1 3 -5 14 -6 25 -2z m84 -26 c0 -11 -6 -9 -20 7
-11 12 -20 24 -20 27 0 3 9 0 20 -7 11 -7 20 -19 20 -27z m445 21 c-3 -3 -11
0 -18 7 -9 10 -8 11 6 5 10 -3 15 -9 12 -12z m-985 -2 c0 -5 -4 -10 -10 -10
-5 0 -10 5 -10 10 0 6 5 10 10 10 6 0 10 -4 10 -10z m480 -20 c0 -5 -9 -14
-20 -20 -11 -6 -17 -16 -14 -22 4 -7 3 -8 -4 -4 -17 10 -15 27 6 42 20 16 32
17 32 4z m645 0 c-3 -5 -12 -10 -18 -10 -7 0 -6 4 3 10 19 12 23 12 15 0z
m-1135 -4 c0 -11 -19 -15 -25 -6 -3 5 1 10 9 10 9 0 16 -2 16 -4z m1060 -5 c0
-5 -7 -14 -15 -21 -18 -15 -42 1 -31 19 8 13 46 15 46 2z m-540 -32 c15 -28 4
-38 -15 -13 -17 22 -19 34 -5 34 5 0 14 -9 20 -21z m484 5 c9 -3 16 -16 16
-27 l0 -21 -20 22 c-28 30 -27 38 4 26z m93 -10 c-3 -3 -12 -4 -19 -1 -8 3 -5
6 6 6 11 1 17 -2 13 -5z m-372 -14 c-3 -5 -12 -10 -18 -10 -7 0 -6 4 3 10 19
12 23 12 15 0z m349 -59 c-11 -12 -10 -17 4 -28 15 -13 14 -14 -15 -10 -18 2
-33 -1 -33 -5 0 -16 -28 -38 -47 -37 -10 0 -13 3 -5 6 6 2 10 8 7 13 -7 11 43
42 55 35 14 -9 12 19 -2 34 -11 10 -8 16 12 33 l25 20 6 -23 c3 -14 1 -30 -7
-38z m-560 43 c9 -3 16 -10 16 -16 0 -5 -5 -6 -10 -3 -6 4 -18 1 -26 -6 -8 -6
-17 -9 -21 -5 -3 3 -1 6 5 6 6 0 9 7 6 15 -6 16 4 19 30 9z m2481 -14 c3 -5 1
-10 -4 -10 -6 0 -11 5 -11 10 0 6 2 10 4 10 3 0 8 -4 11 -10z m-2539 -27 c-10
-10 -19 5 -10 18 6 11 8 11 12 0 2 -7 1 -15 -2 -18z m-126 9 c0 -13 -12 -22
-22 -16 -10 6 -1 24 13 24 5 0 9 -4 9 -8z m-125 -52 c3 -5 1 -10 -4 -10 -6 0
-11 5 -11 10 0 6 2 10 4 10 3 0 8 -4 11 -10z m715 -20 c0 -5 -2 -10 -4 -10 -3
0 -8 5 -11 10 -3 6 -1 10 4 10 6 0 11 -4 11 -10z m-550 -20 c0 -5 -9 -10 -20
-10 -11 0 -20 5 -20 10 0 6 9 10 20 10 11 0 20 -4 20 -10z m110 -10 c0 -16
-27 -29 -48 -23 -27 7 -29 23 -2 23 11 0 20 4 20 10 0 5 7 7 15 4 8 -4 15 -10
15 -14z m670 10 c0 -5 -4 -10 -10 -10 -5 0 -10 5 -10 10 0 6 5 10 10 10 6 0
10 -4 10 -10z m-604 -16 c-5 -13 -1 -15 19 -10 14 4 25 2 25 -4 0 -5 -5 -10
-11 -10 -7 0 -4 -11 7 -27 l17 -28 -26 18 c-31 20 -41 22 -32 5 4 -7 1 -6 -7
3 -7 9 -19 14 -27 11 -15 -5 -9 9 18 39 20 22 25 23 17 3z m347 3 c13 3 29 -2
36 -11 10 -12 8 -17 -19 -31 -17 -9 -35 -13 -40 -10 -6 3 -10 -1 -10 -10 0 -9
-4 -13 -10 -10 -5 3 -10 1 -10 -4 0 -6 -5 -11 -12 -11 -6 0 -8 3 -5 7 8 8 -33
54 -42 48 -4 -2 -7 4 -7 14 0 14 9 18 40 19 22 1 42 5 45 8 3 3 7 1 9 -4 1 -5
13 -7 25 -5z m140 -4 c-7 -2 -19 -2 -25 0 -7 3 -2 5 12 5 14 0 19 -2 13 -5z
m-1269 -52 c4 -5 -3 -7 -14 -4 -23 6 -26 13 -6 13 8 0 17 -4 20 -9z m3182 -24
c16 -8 37 -29 47 -46 17 -30 17 -30 -8 -47 -39 -25 -133 -16 -178 19 -20 15
-40 27 -46 27 -16 0 -1 33 26 56 21 18 31 20 77 13 29 -4 66 -14 82 -22z
m-2541 2 c-5 -25 -13 -35 -21 -27 -5 6 13 48 21 48 2 0 2 -10 0 -21z m125 12
c0 -11 -26 -22 -34 -14 -12 12 -5 23 14 23 11 0 20 -4 20 -9z m237 3 c-3 -3
-12 -4 -19 -1 -8 3 -5 6 6 6 11 1 17 -2 13 -5z m143 -3 c0 -5 -7 -12 -16 -15
-24 -9 -28 -7 -14 9 14 17 30 20 30 6z m2320 -1 c0 -5 -4 -10 -10 -10 -5 0
-10 5 -10 10 0 6 5 10 10 10 6 0 10 -4 10 -10z m-2530 -4 c0 -3 -4 -8 -10 -11
-5 -3 -10 -1 -10 4 0 6 5 11 10 11 6 0 10 -2 10 -4z m450 -6 c0 -5 -7 -10 -16
-10 -8 0 -12 5 -9 10 3 6 10 10 16 10 5 0 9 -4 9 -10z m-90 -31 c0 -5 -4 -9
-10 -9 -5 0 -10 7 -10 16 0 8 5 12 10 9 6 -3 10 -10 10 -16z m-403 -3 c0 -7
-5 -13 -11 -13 -6 0 -22 -3 -36 -8 -25 -7 -25 -7 -5 12 23 22 52 27 52 9z
m-157 -26 c0 -5 -4 -10 -10 -10 -5 0 -10 5 -10 10 0 6 5 10 10 10 6 0 10 -4
10 -10z m-100 -30 c0 -5 -5 -10 -11 -10 -5 0 -7 5 -4 10 3 6 8 10 11 10 2 0 4
-4 4 -10z m-723 -22 c-3 -8 -6 -5 -6 6 -1 11 2 17 5 13 3 -3 4 -12 1 -19z
m683 18 c0 -2 -7 -6 -15 -10 -8 -3 -15 -1 -15 4 0 6 7 10 15 10 8 0 15 -2 15
-4z m35 -26 c3 -5 1 -10 -4 -10 -6 0 -11 5 -11 10 0 6 2 10 4 10 3 0 8 -4 11
-10z m2375 0 c0 -5 -4 -10 -10 -10 -5 0 -10 5 -10 10 0 6 5 10 10 10 6 0 10
-4 10 -10z m-1220 -19 c0 -5 -7 -12 -16 -15 -14 -5 -15 -4 -4 9 14 17 20 19
20 6z m-1550 -21 c-24 -15 -36 -11 -14 4 10 8 21 12 24 10 2 -3 -2 -9 -10 -14z
m2090 10 c0 -5 -4 -10 -10 -10 -5 0 -10 5 -10 10 0 6 5 10 10 10 6 0 10 -4 10
-10z m-2310 -30 c0 -5 -5 -10 -11 -10 -5 0 -7 5 -4 10 3 6 8 10 11 10 2 0 4
-4 4 -10z m680 0 c0 -5 -4 -10 -10 -10 -5 0 -10 5 -10 10 0 6 5 10 10 10 6 0
10 -4 10 -10z m240 0 c0 -5 -4 -10 -10 -10 -5 0 -10 5 -10 10 0 6 5 10 10 10
6 0 10 -4 10 -10z m-100 -10 c0 -5 -4 -10 -10 -10 -5 0 -10 5 -10 10 0 6 5 10
10 10 6 0 10 -4 10 -10z m2880 -50 c0 -5 -4 -10 -10 -10 -5 0 -10 5 -10 10 0
6 5 10 10 10 6 0 10 -4 10 -10z m-2280 -4 c0 -3 -4 -8 -10 -11 -5 -3 -10 -1
-10 4 0 6 5 11 10 11 6 0 10 -2 10 -4z m-1330 -10 c0 -3 -4 -8 -10 -11 -5 -3
-10 -1 -10 4 0 6 5 11 10 11 6 0 10 -2 10 -4z m-266 -22 c9 -22 8 -24 -9 -24
-8 0 -15 9 -15 20 0 24 15 27 24 4z m2276 6 c0 -5 -4 -10 -9 -10 -6 0 -13 5
-16 10 -3 6 1 10 9 10 9 0 16 -4 16 -10z m-890 -90 c0 -5 -5 -10 -11 -10 -5 0
-7 5 -4 10 3 6 8 10 11 10 2 0 4 -4 4 -10z m1860 0 c0 -5 -4 -10 -10 -10 -5 0
-10 5 -10 10 0 6 5 10 10 10 6 0 10 -4 10 -10z m-1970 -140 c0 -5 -2 -10 -4
-10 -3 0 -8 5 -11 10 -3 6 -1 10 4 10 6 0 11 -4 11 -10z m2340 -82 c0 -5 -10
-8 -22 -8 -16 0 -19 3 -11 11 6 6 9 19 6 28 -4 11 -1 10 10 -4 9 -11 17 -23
17 -27z m-2550 12 c0 -5 -4 -10 -10 -10 -5 0 -10 5 -10 10 0 6 5 10 10 10 6 0
10 -4 10 -10z m-90 -10 c0 -5 -4 -10 -10 -10 -5 0 -10 5 -10 10 0 6 5 10 10
10 6 0 10 -4 10 -10z m420 -10 c0 -5 -2 -10 -4 -10 -3 0 -8 5 -11 10 -3 6 -1
10 4 10 6 0 11 -4 11 -10z m-520 -20 c0 -5 -4 -10 -10 -10 -5 0 -10 5 -10 10
0 6 5 10 10 10 6 0 10 -4 10 -10z m-340 -35 c0 -8 -7 -15 -15 -15 -16 0 -20
12 -8 23 11 12 23 8 23 -8z m-20 -54 c0 -5 9 -7 20 -4 24 6 28 -22 5 -31 -8
-3 -15 -1 -15 4 0 6 -7 10 -15 10 -8 0 -15 7 -15 15 0 8 5 15 10 15 6 0 10 -4
10 -9z m220 -51 c0 -5 -4 -10 -10 -10 -5 0 -10 5 -10 10 0 6 5 10 10 10 6 0
10 -4 10 -10z m200 -10 c0 -5 -4 -10 -10 -10 -5 0 -10 5 -10 10 0 6 5 10 10
10 6 0 10 -4 10 -10z"/>
<path d="M4095 3169 c-11 -17 1 -21 15 -4 8 9 8 15 2 15 -6 0 -14 -5 -17 -11z"/>
<path d="M4048 3143 c7 -3 16 -2 19 1 4 3 -2 6 -13 5 -11 0 -14 -3 -6 -6z"/>
<path d="M4295 3110 c-16 -7 -17 -9 -3 -9 9 -1 20 4 23 9 7 11 7 11 -20 0z"/>
<path d="M4240 3080 c0 -5 5 -10 10 -10 6 0 10 5 10 10 0 6 -4 10 -10 10 -5 0
-10 -4 -10 -10z"/>
<path d="M4200 3054 c0 -8 5 -12 10 -9 6 3 10 10 10 16 0 5 -4 9 -10 9 -5 0
-10 -7 -10 -16z"/>
<path d="M4118 3016 c-10 -7 -15 -15 -12 -18 7 -8 44 3 44 13 0 15 -15 17 -32
5z"/>
<path d="M4325 3010 c-3 -5 -1 -10 4 -10 6 0 11 5 11 10 0 6 -2 10 -4 10 -3 0
-8 -4 -11 -10z"/>
<path d="M3855 2860 c3 -5 12 -7 20 -3 21 7 19 13 -6 13 -11 0 -18 -4 -14 -10z"/>
<path d="M3535 2620 c-13 -6 -15 -9 -5 -9 8 0 22 4 30 9 18 12 2 12 -25 0z"/>
<path d="M2816 2421 c-4 -7 -5 -15 -2 -18 9 -9 19 4 14 18 -4 11 -6 11 -12 0z"/>
<path d="M2440 2009 c0 -5 5 -7 10 -4 6 3 10 8 10 11 0 2 -4 4 -10 4 -5 0 -10
-5 -10 -11z"/>
<path d="M2232 1867 c-7 -16 -12 -36 -12 -45 1 -16 1 -15 11 1 5 9 17 17 24
17 8 0 15 5 15 10 0 6 -4 10 -9 10 -5 0 -11 8 -14 18 -3 13 -6 11 -15 -11z"/>
<path d="M2419 1843 c-13 -17 -13 -17 6 -3 11 8 22 16 24 17 2 2 0 3 -6 3 -6
0 -17 -8 -24 -17z"/>
<path d="M2355 1740 c-3 -5 -1 -10 4 -10 6 0 11 5 11 10 0 6 -2 10 -4 10 -3 0
-8 -4 -11 -10z"/>
<path d="M2785 1610 c-4 -6 -10 -8 -15 -5 -4 3 -31 -10 -59 -29 -28 -19 -61
-36 -73 -38 -15 -2 -24 -11 -26 -25 -4 -26 15 -31 24 -8 3 8 24 20 45 26 21 7
39 15 39 19 0 5 11 11 24 14 19 5 67 56 52 56 -3 0 -8 -5 -11 -10z"/>
<path d="M2360 1455 c-8 -9 -8 -15 -2 -15 12 0 26 19 19 26 -2 2 -10 -2 -17
-11z"/>
</g>
</svg>
